# xmcd
#
# Track frame offsets:
#	150
#	16107
#	33586
#	44808
#	62381
#	74902
#	91106
#	111587
#	132844
#	149087
#	161711
#	178332
#	196850
#
# Disc length: 2858 seconds
#
# Revision: 1
# Processed by: cddbd v1.5.2PL0 Copyright (c) Steve Scherf et al.
# Submitted via: audiograbber 1.83.01
#
DISCID=c70b280d
DTITLE=The Common Linnets - The Common Linnets
DYEAR=2014
DGENRE=Country/Folk/Pop
TTITLE0=Calm After The Storm
TTITLE1=Hungry Hands
TTITLE2=Arms Of Salvation
TTITLE3=Still Loving After You
TTITLE4=Sung Song
TTITLE5=Lovers And Liars
TTITLE6=Broken But Home
TTITLE7=Before Complete Surrender
TTITLE8=Where Do I Go With Me
TTITLE9=Time Has No Mercy
TTITLE10=Give Me A Reason
TTITLE11=When Love Was King
TTITLE12=Love Goes On
EXTD=
EXTT0=
EXTT1=
EXTT2=
EXTT3=
EXTT4=
EXTT5=
EXTT6=
EXTT7=
EXTT8=
EXTT9=
EXTT10=
EXTT11=
EXTT12=
PLAYORDER=
